nColumns=19
nRows=49
DataType=double
version=3
OpenSimVersion=4.1
endheader
time	ground_force_1_vx	ground_force_1_vy	ground_force_1_vz	ground_force_1_px	ground_force_1_py	ground_force_1_pz	ground_force_1_mx	ground_force_1_my	ground_force_1_mz	ground_force_2_vx	ground_force_2_vy	ground_force_2_vz	ground_force_2_px	ground_force_2_py	ground_force_2_pz	ground_force_2_mx	ground_force_2_my	ground_force_2_mz
0.025	0	0	0	-0.000528323	0	-0.000111796	0	0	0	252.31	1343.41	-91.8455	0.957731	0	-0.31979	-0	22.6063	-0
0.033333	0	0	0	-0.000528324	0	-0.000111796	0	0	0	250.439	1090.79	-79.8264	0.932765	0	-0.3142	-0	16.9448	-0
0.041667	0	0	0	-0.000528327	0	-0.000111797	0	0	0	245.177	822.228	-65.557	0.899176	0	-0.3091	-0	11.1452	-0
0.05	0	0	0	-0.000528333	0	-0.000111799	0	0	0	219.09	575.642	-50.4078	0.865441	0	-0.305483	-0	5.74002	-0
0.058333	0	0	0	-0.00052834	0	-0.0001118	0	0	0	170.074	373.933	-36.0046	0.841353	0	-0.302607	-0	1.20043	-0
0.066667	0	0	0	-0.00052835	0	-0.000111803	0	0	0	114.605	223.895	-24.3286	0.831918	0	-0.299171	0	-2.14489	0
0.075	0	0	0	-0.000528362	0	-0.000111806	0	0	0	67.8585	121.05	-16.4252	0.831987	0	-0.293938	0	-4.15947	0
0.083333	0	0	0	-0.000528376	0	-0.000111809	0	0	0	35.3094	58.1737	-11.28	0.821839	0	-0.281146	0	-4.90454	0
0.091667	0	0	0	-0.000528393	0	-0.000111813	0	0	0	14.0313	25.2056	-6.97097	0.802038	0	-0.23859	0	-4.6009	0
0.1	0	0	0	-0.000528411	0	-0.000111818	0	0	0	2.34996	10.9278	-2.94703	0.879104	0	-0.110592	0	-3.5676	0
0.108333	0	0	0	-0.000528432	0	-0.000111823	0	0	0	0	0	0	-0.000528427	0	-0.000111822	0	0	0
0.116667	0	0	0	-0.000528454	0	-0.000111828	0	0	0	0	0	0	-0.000528448	0	-0.000111827	0	0	0
0.125	0	0	0	-0.000528479	0	-0.000111834	0	0	0	0	0	0	-0.000528472	0	-0.000111833	0	0	0
0.133333	0	0	0	-0.000528507	0	-0.000111841	0	0	0	0	0	0	-0.000528498	0	-0.000111839	0	0	0
0.141667	0	0	0	-0.000528536	0	-0.000111848	0	0	0	0	0	0	-0.000528526	0	-0.000111846	0	0	0
0.15	0	0	0	-0.000528567	0	-0.000111855	0	0	0	0	0	0	-0.000528556	0	-0.000111854	0	0	0
0.158333	0	0	0	-0.000528601	0	-0.000111863	0	0	0	0	0	0	-0.000528588	0	-0.000111861	0	0	0
0.166667	0	0	0	-0.000528636	0	-0.000111872	0	0	0	0	0	0	-0.000528622	0	-0.00011187	0	0	0
0.175	0	0	0	-0.000528674	0	-0.000111881	0	0	0	0	0	0	-0.000528658	0	-0.000111879	0	0	0
0.183333	0	0	0	-0.000528714	0	-0.000111891	0	0	0	0	0	0	-0.000528696	0	-0.000111888	0	0	0
0.191667	0.57768	12.1211	-3.72001	1.07803	0	-0.160021	0	-4.64319	0	0	0	0	-0.000528736	0	-0.000111898	0	0	0
0.2	-6.29909	24.5442	-9.68017	1.26415	0	-0.225949	0	-3.10775	0	0	0	0	-0.000528778	0	-0.000111908	0	0	0
0.208333	-25.5072	64.8473	-20.0239	1.37381	0	-0.248069	0	-0.52631	0	0	0	0	-0.000528822	0	-0.000111919	0	0	0
0.216667	-68.8827	170.928	-34.6216	1.40039	0	-0.252807	-0	2.61646	-0	0	0	0	-0.000528868	0	-0.00011193	0	0	0
0.225	-136.306	366.913	-50.8223	1.40194	0	-0.25528	-0	5.5712	-0	0	0	0	-0.000528916	0	-0.000111942	0	0	0
0.233333	-191.153	627.194	-62.9859	1.38871	0	-0.258606	-0	7.52478	-0	0	0	0	-0.000528966	0	-0.000111955	0	0	0
0.241667	-199.821	915.965	-64.299	1.35619	0	-0.263381	-0	7.87436	-0	0	0	0	-0.000529018	0	-0.000111967	0	0	0
0.25	-193.701	1209.48	-49.8685	1.31411	0	-0.268937	-0	6.46966	-0	0	0	0	-0.000529072	0	-0.000111981	0	0	0
0.258333	-210.098	1465.01	-20.5846	1.27762	0	-0.273723	-0	3.70628	-0	0	0	0	-0.000529128	0	-0.000111994	0	0	0
0.266667	-235.715	1655.01	13.6273	1.24794	0	-0.277035	-0	0.40051	-0	0	0	0	-0.000529186	0	-0.000112009	0	0	0
0.275	-238.817	1790.2	37.9351	1.21826	0	-0.279524	0	-2.52286	0	0	0	0	-0.000529246	0	-0.000112023	0	0	0
0.283333	-201.21	1890.04	44.4488	1.18424	0	-0.281648	0	-4.38591	0	0	0	0	-0.000529307	0	-0.000112039	0	0	0
0.291667	-138.202	1956.43	38.6833	1.14836	0	-0.283123	0	-4.9721	0	0	0	0	-0.000529371	0	-0.000112054	0	0	0
0.3	-73.5107	1980.84	32.0747	1.11381	0	-0.283489	0	-4.50659	0	0	0	0	-0.000529437	0	-0.000112071	0	0	0
0.308333	-7.96003	1956.53	29.9636	1.07963	0	-0.282969	0	-3.46261	0	0	0	0	-0.000529504	0	-0.000112087	0	0	0
0.316667	65.3017	1876.23	29.5574	1.04428	0	-0.282674	0	-2.33663	0	0	0	0	-0.000529574	0	-0.000112104	0	0	0
0.325	146.518	1736.52	27.7766	1.00728	0	-0.283328	0	-1.49429	0	0	0	0	-0.000529645	0	-0.000112122	0	0	0
0.333333	222.198	1545.94	26.1577	0.969563	0	-0.284459	0	-1.10363	0	0	0	0	-0.000529718	0	-0.00011214	0	0	0
0.341667	273.489	1320.43	27.0122	0.933243	0	-0.285012	0	-1.13513	0	0	0	0	-0.000529793	0	-0.000112158	0	0	0
0.35	292.386	1073.26	28.5519	0.899264	0	-0.284654	0	-1.41742	0	0	0	0	-0.00052987	0	-0.000112177	0	0	0
0.358333	278.006	817.352	26.6218	0.867695	0	-0.283951	0	-1.73495	0	0	0	0	-0.000529948	0	-0.000112197	0	0	0
0.366667	237.37	574.252	20.0432	0.838128	0	-0.283249	0	-1.92581	0	0	0	0	-0.000530029	0	-0.000112216	0	0	0
0.375	181.805	366.058	11.9093	0.811764	0	-0.28203	0	-1.92989	0	0	0	0	-0.000530111	0	-0.000112237	0	0	0
0.383333	124.379	207.333	5.82724	0.791869	0	-0.278521	0	-1.77293	0	0	0	0	-0.000530195	0	-0.000112257	0	0	0
0.391667	75.1941	103.35	2.63855	0.787125	0	-0.268751	0	-1.51822	0	0	0	0	-0.000530281	0	-0.000112279	0	0	0
0.4	38.6726	45.7964	1.08246	0.827615	0	-0.247598	0	-1.22755	0	0	0	0	-0.000530369	0	-0.0001123	0	0	0
0.408333	15.8494	19.1059	0.131922	0.960365	0	-0.205004	0	-0.947778	0	0	0	0	-0.000530458	0	-0.000112322	0	0	0
0.416667	0	0	0	-0.000530659	0	-0.000112362	0	0	0	0	0	0	-0.000530549	0	-0.000112345	0	0	0
0.425	0	0	0	-0.000530756	0	-0.000112386	0	0	0	0	0	0	-0.000530642	0	-0.000112367	0	0	0
